Coordinates
datacolumns 6
datarows 160
range 0 1.59
inDegrees=yes
Units are S.I. units (second, meters, Newtons, ...)
If the header above contains a line with 'inDegrees', this indicates whether rotational values are in degrees (yes) or radians (no).
endheader
time	foot_tx	hip_flexion_r	knee_angle_r	ankle_angle_r	lumbar
0	0.23229147	68.78239761	-75.6127018	4.15302339	-11.50740086
0.01	0.2322607	68.84009587	-75.60467846	4.14874654	-11.38586763
0.02	0.23223551	68.89506292	-75.6014239	4.1460694	-11.26996793
0.03	0.23220905	68.94302952	-75.6031651	4.14620729	-11.16430658
0.04	0.23219155	68.97962416	-75.60618437	4.1470003	-11.07461234
0.05	0.2321763	69.00719339	-75.61102806	4.14930156	-10.99775534
0.06	0.23216953	69.02501998	-75.61512283	4.15151587	-10.93468239
0.07	0.23217011	69.03637074	-75.61799469	4.15331272	-10.88180972
0.08	0.2321842	69.02023516	-75.61653631	4.15431767	-10.8649099
0.09	0.23220287	69.04414746	-75.61609881	4.15232103	-10.8028514
0.1	0.23223124	69.03029527	-75.6126967	4.15120082	-10.7896726
0.11	0.23226929	69.01915758	-75.60696683	4.14801942	-10.77678564
0.12	0.23234759	69.01866438	-75.59188236	4.13488868	-10.75977689
0.13	0.23240053	69.04491073	-75.58446678	4.12570796	-10.71241015
0.14	0.23245806	69.04075552	-75.57354335	4.11651046	-10.70693385
0.15	0.23251534	69.04007085	-75.56274217	4.1064844	-10.7026186
0.16	0.23256536	69.04318297	-75.5526476	4.09617193	-10.70051419
0.17	0.23259946	69.04821031	-75.54511461	4.08778008	-10.70096207
0.18	0.23262941	69.0532093	-75.53804613	4.08014798	-10.70266112
0.19	0.23266211	69.05972178	-75.53116187	4.07161962	-10.70794158
0.2	0.23268921	69.06594425	-75.52570888	4.06430942	-10.71680807
0.21	0.23272278	69.07137309	-75.51983967	4.05627933	-10.72993401
0.22	0.23275256	69.05706054	-75.51474355	4.05065023	-10.77078054
0.23	0.23279186	69.06660705	-75.50934975	4.04262916	-10.7833397
0.24	0.23283932	69.07487183	-75.5001422	4.03226217	-10.80213755
0.25	0.23286185	69.05730961	-75.49363259	4.02814059	-10.85229944
0.26	0.23286227	69.0711208	-75.49074781	4.02603902	-10.8655326
0.27	0.23289449	69.08095642	-75.47623495	4.01633707	-10.88609717
0.28	0.23288546	69.06475683	-75.46664158	4.01606902	-10.93852769
0.29	0.2328894	69.08113817	-75.45482564	4.01176263	-10.95629916
0.3	0.23288742	69.09843307	-75.44160799	4.00792272	-10.97833791
0.31	0.2328851	69.11816801	-75.42731637	4.00414704	-11.00491612
0.32	0.23288078	69.14241718	-75.41206718	4.00043159	-11.03536121
0.33	0.23287307	69.17229776	-75.39558968	3.99662975	-11.07015535
0.34	0.23286406	69.208201	-75.37758394	3.99248723	-11.11031076
0.35	0.23285211	69.25070746	-75.35880537	3.98853429	-11.15628681
0.36	0.23283774	69.29970057	-75.33755732	3.9841195	-11.20904069
0.37	0.232822	69.35462244	-75.31383849	3.97952267	-11.26935811
0.38	0.2328106	69.41642574	-75.28984457	3.97563951	-11.33594236
0.39	0.23279724	69.48448134	-75.26527838	3.97297439	-11.41030047
0.4	0.23278028	69.52962507	-75.24359553	3.97650715	-11.52678228
0.41	0.23277599	69.61959239	-75.22145365	3.97744397	-11.60546821
0.42	0.23277461	69.71504543	-75.20031958	3.98090343	-11.69384233
0.43	0.23277684	69.81580206	-75.18053168	3.98725211	-11.79249375
0.44	0.23278369	69.92598867	-75.16431741	3.99766312	-11.89580604
0.45	0.23278539	70.04831576	-75.15120134	4.0119861	-12.00375732
0.46	0.23278705	70.18409119	-75.1417502	4.03047505	-12.11388379
0.47	0.23278961	70.35928887	-75.13350839	4.04931212	-12.19843869
0.48	0.23277512	70.51742467	-75.1310842	4.07756107	-12.32314748
0.49	0.23279403	70.76766735	-75.12103859	4.09428417	-12.36093776
0.5	0.23278815	71.00013708	-75.11567972	4.11987476	-12.44356283
0.51	0.23278401	71.25580567	-75.10834262	4.14482451	-12.52456262
0.52	0.23277812	71.53469667	-75.10052967	4.16995564	-12.60449957
0.53	0.23277049	71.83853808	-75.0917217	4.19451246	-12.68330885
0.54	0.2327605	72.1683594	-75.0832494	4.21934626	-12.75979713
0.55	0.23274873	72.52578644	-75.07615231	4.24519029	-12.83217202
0.56	0.23273518	72.91295735	-75.07142402	4.2728171	-12.89826296
0.57	0.23271804	73.33160923	-75.06942854	4.30264829	-12.95748631
0.58	0.23269715	73.78307127	-75.06997471	4.33471662	-13.00974231
0.59	0.23267629	74.26853313	-75.07162191	4.36814938	-13.05471786
0.6	0.23265967	74.78789421	-75.07413297	4.40323996	-13.09237748
0.61	0.23264026	75.3370991	-75.07813831	4.44150693	-13.12771247
0.62	0.23261881	75.91496702	-75.08231904	4.48286284	-13.16206051
0.63	0.23259146	76.52009095	-75.08646104	4.52823783	-13.19631995
0.64	0.23255586	77.15172051	-75.08963222	4.57792031	-13.23007087
0.65	0.23251226	77.81523449	-75.09250129	4.63221132	-13.25641901
0.66	0.23246458	78.51106572	-75.08983369	4.68859341	-13.2734234
0.67	0.23240564	79.24869654	-75.0834868	4.74826899	-13.26807225
0.68	0.23233689	80.0339246	-75.07089062	4.80989371	-13.23164752
0.69	0.23225523	80.87135539	-75.05244285	4.87448857	-13.15529266
0.7	0.23217048	81.76968809	-75.02388051	4.93911404	-13.02619358
0.71	0.23204932	82.72448728	-74.9962413	5.01383674	-12.84396677
0.72	0.23192771	83.7389653	-74.96057766	5.09186438	-12.60219738
0.73	0.23180146	84.80888313	-74.92208617	5.17823053	-12.30085392
0.74	0.23167275	85.92694533	-74.88550461	5.27755856	-11.94399705
0.75	0.23152009	87.08447732	-74.85779305	5.39769421	-11.53731375
0.76	0.23137727	88.27006284	-74.83341299	5.53570175	-11.0900486
0.77	0.23124528	89.47782457	-74.81417291	5.69509274	-10.60130426
0.78	0.23112459	90.69006519	-74.79937805	5.8789916	-10.08442575
0.79	0.23101988	91.89056467	-74.78853298	6.0898364	-9.55058343
0.8	0.23093761	93.06410651	-74.77909607	6.32820508	-9.01020038
0.81	0.23087711	94.18920866	-74.77014898	6.59591418	-8.48225199
0.82	0.23084416	95.2529288	-74.7587351	6.89160875	-7.97532053
0.83	0.23083449	96.23507112	-74.74272901	7.21481568	-7.5082317
0.84	0.2308463	97.1177729	-74.72251469	7.56409354	-7.09876681
0.85	0.2308762	97.88475994	-74.69764676	7.93697278	-6.76400499
0.86	0.23092878	98.52311869	-74.66952337	8.33025446	-6.51849097
0.87	0.23100398	99.02734781	-74.6373943	8.73944157	-6.36657338
0.88	0.23110846	99.39882036	-74.5997783	9.15950945	-6.30237018
0.89	0.23124321	99.6494973	-74.55255846	9.58456276	-6.30375021
0.9	0.23140733	99.78173431	-74.4918028	10.00999322	-6.36123391
0.91	0.23160122	99.85351738	-74.40698087	10.42488478	-6.3909556
0.92	0.23181152	99.80180349	-74.29817411	10.83249144	-6.47153381
0.93	0.23203483	99.6924784	-74.15286508	11.22222169	-6.50694262
0.94	0.23226125	99.5118367	-73.96567404	11.59273047	-6.51085371
0.95	0.23248044	99.26141472	-73.73131625	11.94285873	-6.47502577
0.96	0.23269931	98.93843962	-73.44109338	12.26845424	-6.40023083
0.97	0.23290116	98.53853693	-73.09079314	12.57016456	-6.28917717
0.98	0.23310029	98.06039433	-72.67398712	12.84400241	-6.1461142
0.99	0.23329672	97.50005055	-72.18493508	13.08728943	-5.98025874
1	0.23349171	96.85619254	-71.61889061	13.29703347	-5.79925941
1.01	0.23368409	96.12926455	-70.97126705	13.46996975	-5.60906834
1.02	0.23387297	95.3174454	-70.24033226	13.60464852	-5.41650079
1.03	0.23405993	94.42725602	-69.42086416	13.69681611	-5.21768691
1.04	0.23424157	93.45855663	-68.51237328	13.74594715	-5.01633671
1.05	0.23441797	92.40688447	-67.51725018	13.75304789	-4.82117365
1.06	0.23459006	91.2725496	-66.43716508	13.71815439	-4.63498412
1.07	0.23476041	90.04569578	-65.27928324	13.64534542	-4.47109303
1.08	0.2349353	88.71677441	-64.05068491	13.53873584	-4.3411731
1.09	0.23511485	87.28731348	-62.75574917	13.40100394	-4.24220354
1.1	0.23530502	85.74063875	-61.40195087	13.23724639	-4.19293442
1.11	0.23550722	84.08188329	-59.99164062	13.04885659	-4.18369095
1.12	0.23571887	82.30706338	-58.5279176	12.83830055	-4.21794843
1.13	0.23595144	80.43966308	-57.00923622	12.60230509	-4.26440269
1.14	0.23619683	78.48519346	-55.43737502	12.34212878	-4.31802661
1.15	0.23645748	76.45524943	-53.81261474	12.05693587	-4.36524619
1.16	0.2367358	74.35706089	-52.1377864	11.74796955	-4.39962994
1.17	0.23702882	72.18194977	-50.4163442	11.41815908	-4.4341006
1.18	0.23732929	69.94530003	-48.65171603	11.0691209	-4.45315551
1.19	0.23763544	67.63838545	-46.84859568	10.70401401	-4.47024305
1.2	0.23794191	65.25751145	-45.01133874	10.32548254	-4.49386411
1.21	0.2382462	62.80589709	-43.14278058	9.93476817	-4.52338283
1.22	0.23855084	60.30850392	-41.25207204	9.53367239	-4.53945784
1.23	0.2388503	57.75723594	-39.34078877	9.12382679	-4.55611329
1.24	0.23914918	55.1769022	-37.4121983	8.70445243	-4.54979914
1.25	0.23944082	52.57225511	-35.47598131	8.2796686	-4.52949374
1.26	0.23972209	49.96065097	-33.53891056	7.85092553	-4.48797297
1.27	0.23997721	47.36989033	-31.60828906	7.42097907	-4.39905548
1.28	0.240209	44.80514234	-29.69560942	6.99335544	-4.28024128
1.29	0.24040708	42.29053812	-27.81289594	6.57241186	-4.11838885
1.3	0.24056783	39.84383895	-25.97171466	6.16174114	-3.9118769
1.31	0.24069197	37.4832165	-24.18645383	5.76541277	-3.66371388
1.32	0.2407614	35.23550601	-22.46841852	5.38853753	-3.35185931
1.33	0.24079258	33.10848745	-20.83297585	5.03414829	-2.99954127
1.34	0.24078005	31.11924546	-19.29052765	4.70599096	-2.6004051
1.35	0.24072787	29.27515868	-17.85080997	4.40699704	-2.16248203
1.36	0.2406386	27.58459494	-16.51928905	4.13862141	-1.68685637
1.37	0.24051337	26.04174773	-15.29693802	3.9016452	-1.18615105
1.38	0.24035514	24.64268893	-14.17971165	3.69456243	-0.66466866
1.39	0.24016754	23.37648735	-13.16122265	3.51517719	-0.13279218
1.4	0.23994777	22.2293338	-12.23381965	3.3611619	0.39972586
1.41	0.23969951	21.18409301	-11.38699839	3.22826386	0.91830284
1.42	0.23942295	20.22928477	-10.60994933	3.11198082	1.41768611
1.43	0.2391149	19.35457986	-9.88990084	3.0073369	1.89719743
1.44	0.23877324	18.54825018	-9.21790717	2.91095225	2.350664
1.45	0.23840005	17.80163608	-8.58293628	2.81809693	2.7775168
1.46	0.23798888	17.10847183	-7.9764529	2.72610288	3.18003085
1.47	0.23753954	16.46140936	-7.39249227	2.63340271	3.55711324
1.48	0.23704929	15.85774446	-6.82784826	2.53978258	3.91173683
1.49	0.23651604	15.29517989	-6.28349306	2.44720589	4.24515951
1.5	0.23595071	14.771741	-5.76352005	2.3586245	4.55820909
1.51	0.23536755	14.289358	-5.27495061	2.2779059	4.85281094
1.52	0.23478964	13.85082584	-4.82870584	2.21029948	5.13033405
1.53	0.23425546	13.46213343	-4.4368506	2.16020592	5.39311002
1.54	0.2337925	13.12640923	-4.11283771	2.13388124	5.64263281
1.55	0.23345249	12.8682487	-3.86645204	2.13149137	5.90216139
1.56	0.23325241	12.6404898	-3.69720074	2.15552084	6.11953757
1.57	0.23320453	12.45496767	-3.60293113	2.20285418	6.3113754
1.58	0.23330489	12.33532751	-3.57868108	2.26881574	6.50978172
1.59	0.23352521	12.2465447	-3.60125218	2.34498886	6.68868393
